<svg xmlns="http://www.w3.org/2000/svg" xmlns:xlink="http://www.w3.org/1999/xlink" viewBox="0,0,256,256" width="500px" height="500px"><g fill="#ffffff" fill-rule="nonzero" stroke="none" stroke-width="1" stroke-linecap="butt" stroke-linejoin="miter" stroke-miterlimit="10" stroke-dasharray="" stroke-dashoffset="0" font-family="none" font-weight="none" font-size="none" text-anchor="none" style="mix-blend-mode: normal"><g transform="scale(5.12,5.12)"><path d="M20.9375,1.98633c-0.03668,0.00254 -0.0732,0.00711 -0.10937,0.01367h-0.58203c-4.5424,0 -8.24609,3.70261 -8.24609,8.24414v0.50976c0,4.45942 3.57161,8.10247 8,8.23438v2.01172h-2.5c-1.64458,0 -3.02925,1.16098 -3.39648,2.69922c-3.61566,1.695 -5.70096,5.92919 -5.64648,9.98047c-1.41426,0.45003 -2.45703,1.76441 -2.45703,3.32031c-0.0051,0.36064 0.18438,0.69608 0.49587,0.87789c0.3115,0.18181 0.69676,0.18181 1.00825,0c0.3115,-0.18181 0.50097,-0.51725 0.49587,-0.87789c0,-0.84081 0.65919,-1.5 1.5,-1.5c0.84081,0 1.5,0.65919 1.5,1.5c-0.0051,0.36064 0.18438,0.69608 0.49587,0.87789c0.3115,0.18181 0.69676,0.18181 1.00825,0c0.3115,-0.18181 0.50097,-0.51725 0.49587,-0.87789c0,-1.5861 -1.08263,-2.92402 -2.53906,-3.34766c-0.01789,-3.04221 1.53518,-6.30504 3.88477,-7.80469c0.52318,1.25206 1.71855,2.15234 3.1543,2.15234h0.5v2h-2c-0.55226,0.00006 -0.99994,0.44774 -1,1v4c0.00006,0.55226 0.44774,0.99994 1,1h2v7c0.00051,0.00977 0.00116,0.01954 0.00195,0.0293c-1.20695,0.91509 -2.00195,2.34858 -2.00195,3.9707c0.00006,0.55226 0.44774,0.99994 1,1h8h8c0.55226,-0.00006 0.99994,-0.44774 1,-1c0,-1.62158 -0.79373,-3.05557 -2,-3.9707c0.00014,-0.00977 0.00014,-0.01953 0,-0.0293v-7h2c0.55226,-0.00006 0.99994,-0.44774 1,-1v-4c-0.00006,-0.55226 -0.44774,-0.99994 -1,-1h-2v-2h0.5c1.43575,0 2.63091,-0.90034 3.1543,-2.15234c2.34958,1.49965 3.90265,4.76248 3.88477,7.80469c-1.45644,0.42363 -2.53906,1.76156 -2.53906,3.34766c-0.0051,0.36064 0.18438,0.69608 0.49587,0.87789c0.3115,0.18181 0.69676,0.18181 1.00825,0c0.3115,-0.18181 0.50097,-0.51725 0.49587,-0.87789c0,-0.84081 0.65919,-1.5 1.5,-1.5c0.84081,0 1.5,0.65919 1.5,1.5c-0.0051,0.36064 0.18438,0.69608 0.49587,0.87789c0.3115,0.18181 0.69676,0.18181 1.00825,0c0.3115,-0.18181 0.50097,-0.51725 0.49587,-0.87789c0,-1.5559 -1.04277,-2.87029 -2.45703,-3.32031c0.05447,-4.05128 -2.03082,-8.28547 -5.64648,-9.98047c-0.36724,-1.53824 -1.75191,-2.69922 -3.39648,-2.69922h-2.5v-2.01172c4.42839,-0.13187 8,-3.77386 8,-8.23242v-0.50976c0,-4.5424 -3.70261,-8.24609 -8.24414,-8.24609h-0.74023h-7.85742c-0.04005,-0.00701 -0.08049,-0.01158 -0.12109,-0.01367c-0.03318,-0.00165 -0.06643,-0.00165 -0.09961,0zM22.28125,4h5.4375l-0.5,2h-4.4375zM20.21875,4.00195l0.81055,3.24023c0.11124,0.44549 0.51154,0.75799 0.9707,0.75781h6c0.45917,0.00018 0.85946,-0.31233 0.9707,-0.75781l0.81055,-3.24023c3.44852,0.01377 6.21875,2.79112 6.21875,6.24414v0.50976c0,3.37739 -2.65442,6.10316 -6,6.23242c-0.00421,-0.34014 -0.18102,-0.65482 -0.46935,-0.83532c-0.28833,-0.1805 -0.64863,-0.20207 -0.95644,-0.05726l-3.57422,1.67969l-3.57422,-1.67969c-0.12118,-0.05751 -0.2527,-0.09006 -0.38672,-0.0957c-0.26989,-0.01054 -0.53256,0.08853 -0.72827,0.27467c-0.19571,0.18614 -0.3078,0.44353 -0.31079,0.71361c-3.34558,-0.1293 -6,-2.85588 -6,-6.23437v-0.50976c0,-3.45123 2.77001,-6.22737 6.21875,-6.24219zM18.98438,9c-0.25977,0.00414 -0.50774,0.10921 -0.69141,0.29297l-2,2c-0.26124,0.25082 -0.36648,0.62327 -0.27512,0.97371c0.09136,0.35044 0.36503,0.62411 0.71547,0.71547c0.35044,0.09136 0.72289,-0.01388 0.97371,-0.27512l1.29297,-1.29297l1.29297,1.29297c0.25082,0.26124 0.62327,0.36648 0.97371,0.27512c0.35044,-0.09136 0.62411,-0.36503 0.71547,-0.71547c0.09136,-0.35044 -0.01388,-0.72289 -0.27512,-0.97371l-2,-2c-0.19132,-0.19141 -0.45205,-0.29711 -0.72266,-0.29297zM30.98438,9c-0.25977,0.00414 -0.50774,0.10921 -0.69141,0.29297l-2,2c-0.26124,0.25082 -0.36648,0.62327 -0.27512,0.97371c0.09136,0.35044 0.36503,0.62411 0.71547,0.71547c0.35044,0.09136 0.72289,-0.01388 0.97371,-0.27512l1.29297,-1.29297l1.29297,1.29297c0.25082,0.26124 0.62327,0.36648 0.97371,0.27512c0.35044,-0.09136 0.62411,-0.36503 0.71547,-0.71547c0.09136,-0.35044 -0.01388,-0.72289 -0.27512,-0.97371l-2,-2c-0.19132,-0.19141 -0.45205,-0.29711 -0.72266,-0.29297zM22,18.57422l2.57422,1.21094c0.26967,0.12688 0.58189,0.12688 0.85156,0l2.57422,-1.21094v2.85156l-2.57422,-1.21094c-0.26967,-0.12688 -0.58189,-0.12688 -0.85156,0l-2.57422,1.21094zM25,22.22461l3.57422,1.67969c0.30968,0.14566 0.67234,0.12287 0.96134,-0.06043c0.289,-0.1833 0.46421,-0.50164 0.46444,-0.84387h2.5c0.79194,0 1.41567,0.58689 1.48633,1.35742c-0.00227,0.06072 0.001,0.12152 0.00977,0.18164c-0.02055,0.8216 -0.66868,1.46094 -1.49609,1.46094h-15c-0.82808,0 -1.47654,-0.64033 -1.49609,-1.46289c0.00808,-0.05626 0.01134,-0.11311 0.00977,-0.16992c0.06623,-0.77532 0.69107,-1.36719 1.48633,-1.36719h2.5c0.00023,0.34223 0.17544,0.66057 0.46444,0.84387c0.289,0.1833 0.65166,0.20609 0.96134,0.06043zM20,28h10v2h-10zM17,32h16v2h-2h-4h-4h-4h-2zM20,36h2v6h-2zM24,36h2v7c0.00051,0.00977 0.00116,0.01954 0.00195,0.0293c-0.38029,0.28833 -0.71703,0.62483 -1.00195,1.00781c-0.28462,-0.38257 -0.6202,-0.71968 -1,-1.00781c0.00014,-0.00977 0.00014,-0.01953 0,-0.0293zM28,36h2v6h-1h-1zM21,44c1.27585,0 2.1508,0.88753 2.58789,2h-5.17578c0.43709,-1.11247 1.31204,-2 2.58789,-2zM29,44c1.27585,0 2.1508,0.88753 2.58789,2h-5.17578c0.43709,-1.11247 1.31204,-2 2.58789,-2z"></path></g></g></svg>